<?xml version="1.0" standalone="no"?>
<!DOCTYPE svg PUBLIC "-//W3C//DTD SVG 20010904//EN"
 "http://www.w3.org/TR/2001/REC-SVG-20010904/DTD/svg10.dtd">
<svg version="1.0" xmlns="http://www.w3.org/2000/svg"
 width="300.000000pt" height="300.000000pt" viewBox="0 0 300.000000 300.000000"
 preserveAspectRatio="xMidYMid meet">
<metadata>
Created by potrace 1.10, written by Peter Selinger 2001-2011
</metadata>
<g transform="translate(0.000000,300.000000) scale(0.100000,-0.100000)"
fill="#000000" stroke="none">
<path d="M1050 2930 c0 -11 7 -20 15 -20 12 0 15 -13 15 -60 0 -33 4 -60 10
-60 6 0 10 -39 9 -97 0 -54 -3 -93 -6 -86 -3 10 -7 10 -18 0 -9 -9 -10 -14 -1
-19 6 -4 -1 -8 -16 -8 -18 0 -28 -5 -28 -15 0 -8 -3 -14 -7 -14 -5 1 -15 1
-23 0 -13 -1 -13 -2 0 -11 12 -8 9 -10 -12 -10 -16 0 -28 -4 -28 -10 0 -5 -7
-10 -15 -10 -14 0 -55 -34 -55 -45 0 -3 46 -5 102 -5 104 0 111 4 53 34 l-30
16 65 0 c64 0 64 0 36 15 -15 8 -33 12 -38 9 -6 -4 -5 3 1 15 7 11 16 21 21
21 5 0 12 10 15 21 6 17 9 19 16 8 15 -25 10 23 -6 51 -19 33 -18 50 0 26 9
-11 15 -14 15 -7 0 9 5 8 16 -3 8 -9 12 -21 8 -27 -5 -8 -3 -9 6 -4 7 4 28 9
47 10 48 3 84 39 82 84 -3 45 -15 71 -34 71 -30 0 -15 29 18 35 32 6 93 -15
80 -28 -3 -4 1 -7 10 -7 9 0 24 -11 33 -25 9 -14 20 -22 25 -19 5 3 6 -2 3
-11 -4 -8 -1 -22 6 -30 7 -9 13 -24 14 -35 0 -11 5 -19 11 -18 5 2 9 8 7 15
-1 6 2 14 8 18 13 8 13 -78 0 -91 -8 -8 -8 -19 0 -38 14 -39 13 -43 -20 -63
-29 -17 -41 -43 -20 -43 6 0 10 7 10 15 0 8 6 15 14 15 16 0 36 -77 36 -135 0
-19 5 -35 10 -35 6 0 10 23 10 51 0 31 -4 48 -10 44 -6 -4 -10 34 -9 107 0 72
3 106 9 93 5 -11 9 -41 9 -66 1 -26 4 -61 7 -78 12 -60 24 -30 24 59 0 73 -3
90 -15 90 -11 0 -15 11 -15 41 0 24 -4 38 -10 34 -6 -4 -10 9 -10 32 0 28 -3
34 -10 23 -8 -12 -10 -9 -10 13 0 15 -5 27 -11 27 -14 0 -39 26 -39 40 0 6 -4
8 -10 5 -5 -3 -10 1 -10 9 0 9 -7 16 -15 16 -8 0 -15 5 -15 10 0 6 -16 10 -35
10 -24 0 -35 5 -35 15 0 10 -11 15 -35 15 -19 0 -35 5 -35 10 0 6 -12 10 -26
10 -20 0 -25 -4 -20 -16 3 -9 6 -34 6 -55 0 -24 4 -38 10 -34 6 4 10 -7 10
-24 0 -26 4 -31 25 -31 23 0 25 -4 25 -40 0 -29 -4 -40 -15 -40 -8 0 -15 -4
-15 -10 0 -5 -10 -10 -22 -10 -19 0 -20 2 -8 10 13 8 12 10 -5 11 -11 1 -23 1
-27 0 -5 0 -8 6 -8 14 0 8 -4 15 -10 15 -5 0 -10 7 -10 16 0 8 5 12 10 9 6 -4
10 8 10 29 0 20 -4 36 -10 36 -5 0 -10 5 -10 11 0 6 -7 17 -15 25 -8 9 -15 24
-15 35 0 10 -4 19 -10 19 -5 0 -10 11 -10 25 0 20 -5 25 -25 25 -18 0 -25 -5
-25 -20z"/>
<path d="M1279 2508 c-9 -37 -4 -48 23 -48 35 0 58 -20 58 -52 0 -18 2 -20 10
-8 8 12 10 11 10 -7 0 -14 6 -23 15 -23 10 0 15 -11 15 -35 0 -19 5 -35 10
-35 6 0 10 -11 10 -25 0 -14 5 -25 10 -25 6 0 10 -11 10 -25 0 -16 6 -25 15
-25 9 0 15 -9 15 -25 0 -14 5 -25 10 -25 6 0 10 34 9 83 0 55 -3 75 -9 62 -8
-19 -9 -18 -11 5 -1 14 -1 53 0 86 2 37 -2 64 -8 68 -7 5 -11 -2 -12 -16 0
-13 -3 -17 -6 -10 -9 23 -23 12 -23 -19 0 -35 -15 -31 -24 6 -6 25 -54 79 -72
81 -5 1 -19 5 -31 9 -13 3 -23 5 -24 3z"/>
<path d="M1130 2484 c0 -8 -7 -17 -15 -20 -33 -13 -12 -24 45 -24 l60 0 0 -48
c0 -37 4 -49 15 -49 8 0 15 6 15 14 0 15 36 18 45 3 3 -5 -1 -10 -9 -10 -9 0
-16 -4 -16 -10 0 -5 -7 -10 -15 -10 -8 0 -15 -9 -15 -20 0 -11 6 -19 13 -17
12 2 14 -6 16 -68 1 -23 3 -27 11 -15 7 11 10 5 10 -23 0 -23 4 -36 10 -32 6
4 10 -5 10 -19 0 -16 6 -26 15 -26 10 0 15 -11 15 -35 0 -19 5 -35 10 -35 15
0 12 -39 -4 -56 -9 -9 -35 -14 -70 -14 -43 0 -56 -3 -56 -15 0 -8 -5 -15 -12
-15 -9 0 -9 -3 0 -12 9 -9 16 -7 31 6 19 18 20 17 27 -8 6 -25 7 -25 19 -9 7
10 11 22 8 27 -4 5 -1 6 5 2 6 -4 21 -2 33 4 29 16 33 8 9 -18 -29 -31 1 -30
34 2 33 29 32 34 -1 38 l-28 4 27 8 c21 6 35 3 58 -14 23 -16 34 -19 44 -11
15 13 41 10 72 -7 11 -6 32 -13 45 -16 40 -7 76 -30 71 -45 -3 -10 2 -12 21
-7 14 3 29 2 32 -4 3 -5 17 -10 30 -10 13 0 27 -4 30 -10 3 -5 2 -10 -4 -10
-5 0 -8 -7 -7 -15 3 -21 16 -31 16 -12 0 9 3 16 8 16 4 -1 16 0 27 1 15 1 16
3 5 7 -20 8 -40 29 -40 42 0 6 -11 11 -25 11 -14 0 -25 5 -25 10 0 6 -9 10
-20 10 -11 0 -20 5 -20 10 0 6 -11 10 -25 10 -16 0 -25 6 -25 15 0 10 -11 15
-35 15 -19 0 -35 5 -35 10 0 6 -30 10 -70 10 -56 0 -70 3 -70 15 0 8 -6 14
-12 13 -9 -2 -12 11 -10 45 3 37 0 47 -12 47 -10 0 -16 9 -16 25 0 14 -4 25
-10 25 -5 0 -10 21 -10 48 0 34 -3 43 -10 32 -7 -11 -10 -5 -11 25 -1 22 -1
43 0 48 0 4 -6 7 -14 7 -8 0 -15 7 -15 15 0 8 5 14 11 13 6 -2 13 7 15 20 2
12 -1 22 -7 22 -14 0 -39 25 -39 39 0 6 -7 11 -15 11 -8 0 -15 5 -15 11 0 6
-6 9 -14 6 -8 -3 -17 -1 -20 6 -3 9 -5 9 -5 0 -1 -8 -13 -12 -28 -12 -17 1
-21 3 -10 6 27 7 20 19 -18 30 -29 9 -35 9 -35 -3z"/>
<path d="M1150 2005 c0 -10 -10 -15 -27 -15 -22 0 -25 -2 -13 -10 10 -6 11
-10 3 -10 -7 0 -13 -8 -14 -17 0 -15 -2 -15 -9 2 -5 11 -9 14 -9 7 -1 -7 -8
-21 -17 -29 -13 -13 -15 -29 -9 -82 4 -36 11 -68 15 -71 4 -3 10 -14 13 -25 4
-18 5 -18 6 3 0 12 7 22 14 22 8 0 14 6 14 13 0 9 -9 12 -25 9 -27 -5 -26 -10
-8 67 8 37 28 44 48 18 l18 -22 0 27 c0 14 -5 28 -12 30 -8 3 -7 11 4 27 11
16 17 19 21 9 3 -7 6 4 6 25 1 20 -3 37 -9 37 -5 0 -10 -7 -10 -15z"/>
<path d="M1473 1913 c9 -2 17 -8 17 -13 0 -4 -8 -6 -18 -3 -16 4 -18 -1 -18
-31 1 -20 5 -36 10 -36 4 0 6 14 4 30 -4 26 -2 29 14 24 13 -4 18 0 18 15 0
15 -6 21 -22 20 -17 -1 -19 -2 -5 -6z"/>
<path d="M1012 1843 l2 -58 4 50 c3 38 6 45 12 30 8 -18 9 -17 9 8 1 18 -4 27
-14 27 -12 0 -15 -12 -13 -57z"/>
<path d="M1133 1832 c10 -10 17 -24 17 -30 0 -6 5 -14 10 -17 6 -4 10 8 10 29
0 32 -3 36 -27 36 -25 0 -25 -1 -10 -18z"/>
<path d="M1240 1833 c0 -14 6 -23 15 -23 8 0 15 -6 15 -13 0 -7 9 -19 20 -27
11 -8 20 -20 20 -27 0 -7 6 -13 13 -13 7 0 19 -9 27 -20 9 -13 26 -20 47 -20
29 0 33 3 33 25 0 22 4 25 35 25 24 0 35 -5 35 -15 0 -9 9 -15 21 -15 26 0 49
-23 49 -49 0 -12 6 -21 15 -21 11 0 14 -13 13 -60 -2 -57 -10 -75 -21 -47 -3
6 -6 -111 -6 -261 -1 -180 2 -271 9 -267 6 3 10 -2 10 -12 2 -72 12 -188 21
-242 8 -42 8 -65 2 -70 -6 -3 -14 -21 -18 -39 -5 -22 -15 -36 -32 -43 -33 -12
-34 -12 -23 15 5 13 6 27 3 30 -4 3 -2 6 4 6 23 0 21 39 -3 55 -13 8 -24 23
-24 32 0 9 -3 13 -7 10 -3 -4 -12 1 -19 11 -13 16 -13 16 -14 0 0 -10 -2 -18
-4 -18 -2 0 -23 18 -47 40 -36 33 -49 39 -71 34 -24 -5 -28 -2 -34 22 -5 18
-3 29 4 32 15 5 16 22 1 22 -6 0 -28 14 -48 30 -20 17 -40 34 -46 39 -5 4 -22
21 -36 38 -24 27 -28 40 -30 86 0 9 -7 17 -15 17 -12 0 -14 7 -9 33 4 17 11
34 16 35 12 5 11 32 -1 32 -5 0 -10 -7 -10 -15 0 -8 -7 -15 -16 -15 -8 0 -12
-4 -9 -10 3 -5 -3 -10 -14 -10 -15 0 -21 6 -21 23 0 13 -5 28 -10 33 -7 7 -9
68 -7 165 l3 154 2 -160 c2 -101 7 -153 12 -140 7 16 9 12 9 -18 1 -23 5 -36
11 -32 15 9 11 67 -5 89 -20 26 -19 36 3 36 14 0 14 2 3 9 -9 6 -12 19 -8 39
3 17 2 45 -3 63 -6 21 -6 35 0 39 9 6 8 18 -6 83 -3 15 -1 27 4 27 5 0 6 20 1
48 -4 26 -5 59 -2 73 3 18 0 28 -11 32 -9 4 -17 14 -17 24 -1 10 -4 5 -8 -11
-9 -42 -1 -127 10 -101 5 15 8 8 8 -25 1 -33 -2 -41 -9 -30 -12 18 -11 33 -13
-227 -2 -149 1 -193 11 -193 7 0 12 -14 12 -35 0 -19 5 -35 10 -35 6 0 10 -11
10 -25 0 -16 6 -25 16 -25 10 0 14 -7 12 -22 -2 -14 2 -22 10 -21 6 2 12 -2
12 -8 0 -14 25 -39 39 -39 6 0 11 -7 11 -16 0 -8 5 -12 10 -9 5 3 10 -1 10 -9
0 -10 9 -16 21 -16 45 0 49 -17 49 -210 0 -144 -3 -184 -14 -196 -8 -8 -19
-14 -25 -14 -6 0 -11 -7 -11 -16 0 -11 -6 -14 -20 -9 -14 5 -20 2 -20 -9 0
-10 -9 -16 -25 -16 -16 0 -25 -6 -25 -15 0 -8 2 -15 5 -15 14 0 87 45 109 67
l26 26 1 -24 c0 -22 1 -23 9 -4 6 13 9 15 9 5 1 -25 -36 -60 -62 -60 -14 0
-27 -6 -30 -13 -3 -7 -24 -14 -47 -15 -35 -3 -41 0 -37 13 5 10 0 15 -13 15
-29 0 -24 -24 8 -37 25 -10 23 -11 -23 -11 -37 0 -45 2 -30 8 16 7 17 9 3 9
-9 1 -23 4 -32 7 -11 4 -16 1 -16 -10 0 -9 -8 -16 -20 -16 -11 0 -20 -4 -20
-10 0 -5 -16 -10 -35 -10 -25 0 -35 -4 -35 -16 0 -13 -9 -15 -50 -12 -35 2
-50 -1 -50 -9 0 -7 -4 -13 -10 -13 -5 0 -10 -11 -10 -25 0 -24 3 -25 55 -25
42 0 55 3 55 15 0 12 13 15 60 15 33 0 60 4 60 10 0 6 16 10 35 10 25 0 35 4
35 15 0 13 7 15 35 9 28 -5 35 -3 35 10 0 12 9 16 35 16 19 0 35 5 35 10 0 15
19 12 36 -4 10 -11 14 -41 14 -115 0 -61 4 -101 10 -101 6 0 10 -11 10 -25 0
-14 5 -25 11 -25 6 0 17 -7 26 -15 8 -8 19 -13 24 -10 12 8 12 165 -1 165 -6
0 -10 35 -10 85 0 50 4 85 10 85 6 0 10 -7 10 -15 0 -10 11 -15 35 -15 19 0
35 -4 35 -10 0 -5 16 -10 35 -10 26 0 35 -4 35 -16 0 -13 7 -15 35 -11 26 4
35 2 35 -9 0 -11 14 -14 60 -14 33 0 60 -4 60 -10 0 -16 89 -12 106 4 24 24
16 35 -21 29 -28 -4 -35 -2 -35 11 0 12 -9 16 -42 15 -37 -1 -39 -2 -18 -9 19
-6 12 -8 -30 -9 -54 0 -55 0 -27 15 36 20 34 24 -10 24 -28 0 -34 -3 -23 -10
11 -7 2 -9 -30 -9 -43 1 -44 2 -17 12 25 10 38 37 18 37 -20 0 -41 -13 -35
-21 3 -5 -11 -9 -30 -9 -19 0 -38 5 -41 10 -4 6 5 10 19 10 16 0 26 6 26 15 0
19 -46 20 -53 1 -4 -9 -14 -12 -28 -9 -20 6 -20 7 -5 18 21 16 20 25 -3 25
-10 0 -22 8 -25 17 -5 13 -9 14 -19 4 -9 -9 -9 -14 3 -21 8 -5 11 -12 8 -16
-8 -8 -38 20 -38 35 0 6 -6 11 -14 11 -7 0 -16 8 -18 18 -3 11 0 19 8 19 8 0
14 -3 14 -7 0 -3 7 -15 15 -26 13 -18 14 -16 14 26 0 34 -2 40 -9 25 -8 -18
-9 -17 -9 7 -1 14 5 29 12 32 10 5 10 7 0 12 -9 4 -13 39 -13 125 0 65 2 119
5 119 9 0 85 -80 85 -90 0 -5 6 -10 13 -10 7 0 19 -9 27 -20 8 -11 20 -20 27
-20 7 0 13 -7 13 -15 0 -8 -7 -15 -15 -15 -9 0 -15 -10 -15 -26 0 -14 -4 -23
-10 -19 -6 4 -10 -5 -10 -19 0 -16 -6 -26 -15 -26 -8 0 -15 -7 -15 -15 0 -8 7
-15 15 -15 8 0 15 6 15 13 0 7 7 23 16 35 13 19 17 20 30 8 19 -20 18 -26 -6
-26 -11 0 -20 -5 -20 -11 0 -16 -31 -38 -52 -39 -12 0 -18 -8 -18 -25 0 -14 5
-25 10 -25 6 0 10 7 10 15 0 8 9 15 20 15 20 0 120 91 120 110 0 5 7 10 15 10
8 0 15 5 15 10 0 6 9 10 20 10 11 0 20 -4 20 -10 0 -5 7 -10 15 -10 8 0 15 -7
15 -15 0 -9 10 -15 26 -15 14 0 23 -4 19 -10 -3 -5 1 -10 9 -10 9 0 16 -7 16
-15 0 -17 9 -19 30 -5 13 8 11 11 -7 16 -25 7 -30 19 -10 28 10 5 10 7 0 12
-7 3 -13 12 -13 20 0 8 -5 14 -11 14 -14 0 -39 25 -39 39 0 18 90 14 97 -5 5
-13 7 -13 14 -2 6 9 43 14 135 16 119 3 154 12 154 36 0 3 -58 6 -129 6 l-130
0 -4 28 -4 27 -2 -28 c-1 -20 5 -30 22 -37 15 -6 -7 -9 -75 -9 -59 -1 -98 3
-98 9 0 6 -11 10 -25 10 l-25 0 0 190 c0 169 2 190 16 190 13 0 15 -7 11 -35
-4 -26 -2 -35 9 -35 9 0 14 -11 14 -35 0 -19 5 -35 10 -35 6 0 10 -21 10 -46
0 -27 4 -43 10 -39 13 8 23 -36 17 -78 -5 -41 8 -72 19 -44 8 23 24 22 24 -2
0 -17 18 -31 41 -31 5 0 9 23 9 50 0 47 -2 50 -25 50 -22 0 -25 4 -24 33 l1
32 8 -30 c7 -28 8 -27 9 13 1 30 -3 42 -13 42 -8 0 -17 -8 -19 -17 -3 -10 -5
1 -6 25 0 23 -5 42 -11 42 -5 0 -10 5 -10 11 0 5 5 7 10 4 6 -4 10 7 10 24 0
19 -5 30 -12 28 -7 -1 -14 8 -16 21 -2 12 -8 22 -13 22 -5 0 -9 18 -9 41 0 24
-4 38 -10 34 -6 -4 -10 8 -10 29 0 25 -4 36 -15 36 -10 0 -15 10 -15 28 -1 20
-3 23 -9 12 -5 -8 -6 -35 -1 -60 5 -28 4 -47 -2 -51 -5 -3 -9 -8 -8 -10 1 -2
-3 -15 -9 -29 -8 -20 -10 -8 -10 58 -1 48 3 82 9 82 6 0 10 12 10 26 0 25 2
25 57 23 37 -2 58 1 61 9 2 7 15 12 28 12 14 0 22 4 19 10 -3 6 1 10 9 10 10
0 16 9 16 25 0 14 5 25 10 25 6 0 10 11 10 25 0 14 6 25 13 25 9 0 12 11 9 35
l-4 35 96 0 c79 0 96 -3 96 -15 0 -10 11 -15 35 -15 25 0 35 4 35 16 0 8 -4
12 -10 9 -6 -4 -10 5 -10 19 0 16 -6 26 -15 26 -9 0 -15 9 -15 25 0 14 -4 25
-10 25 -5 0 -11 12 -11 28 l-1 27 -8 -30 c-4 -16 -8 -22 -9 -12 0 10 -5 15
-11 12 -5 -3 -10 1 -10 9 0 9 -6 16 -13 16 -7 0 -19 9 -27 20 -8 11 -25 20
-37 20 -13 0 -23 5 -23 11 0 14 -25 39 -39 39 -6 0 -11 7 -11 16 0 8 -4 13 -9
9 -5 -3 -12 3 -14 12 -4 14 -5 12 -6 -5 0 -13 10 -35 23 -49 14 -15 23 -30 20
-34 -7 -13 45 -47 65 -42 11 3 27 -6 43 -25 32 -39 65 -56 71 -39 3 6 6 0 6
-15 1 -14 7 -29 14 -31 6 -3 0 -5 -15 -4 -16 1 -28 5 -28 9 0 4 -9 8 -19 8
-11 0 -22 6 -25 13 -3 9 -9 7 -19 -5 -13 -17 -62 -19 -87 -3 -5 3 -10 1 -10
-5 0 -6 -5 -8 -12 -4 -7 5 -9 2 -6 -8 4 -8 -2 -19 -13 -26 -14 -9 -17 -20 -14
-44 4 -24 3 -27 -3 -14 -9 21 -16 15 -25 -24 -11 -46 -58 -87 -106 -93 -24 -3
-57 -15 -72 -26 -16 -12 -30 -21 -32 -21 -6 0 -1 224 7 260 13 70 14 104 0
125 -8 12 -15 33 -16 47 -1 15 -6 24 -10 22 -4 -3 -8 5 -8 17 0 18 -3 19 -15
9 -16 -14 -35 -6 -35 16 0 8 -4 14 -10 14 -5 0 -10 -4 -10 -10 0 -13 -36 -13
-61 0 -15 8 -19 7 -19 -5 0 -8 -6 -15 -14 -15 -8 0 -17 -6 -19 -12 -4 -9 -13
-4 -30 13 -13 15 -34 32 -46 38 -12 7 -21 21 -21 36 0 27 -16 42 -23 23 -4
-10 -8 -9 -16 2 -9 12 -11 11 -11 -7z m387 -945 c-2 -29 -3 -8 -3 47 0 55 1
79 3 53 2 -26 2 -71 0 -100z m33 -218 c0 -5 7 -10 15 -10 8 0 15 -6 15 -13 0
-7 9 -19 20 -27 11 -8 20 -18 20 -22 0 -16 -36 -7 -50 12 -8 11 -20 20 -27 20
-7 0 -13 11 -13 25 0 14 5 25 10 25 6 0 10 -4 10 -10z m-323 -331 c-3 -33 -7
-63 -10 -65 -10 -11 -26 25 -33 74 -7 52 -6 52 20 52 27 0 28 0 23 -61z m1
-110 c2 -13 8 -28 13 -34 11 -11 12 -115 1 -115 -14 0 -42 97 -42 142 0 44 22
50 28 7z"/>
<path d="M1613 1835 c-7 -8 -13 -22 -12 -32 0 -13 2 -14 6 -4 4 10 10 5 19
-15 7 -16 13 -23 13 -16 1 6 10 12 20 12 11 0 23 5 26 10 3 6 -1 10 -9 10 -9
0 -16 7 -16 16 0 8 -4 12 -10 9 -5 -3 -10 1 -10 9 0 20 -11 20 -27 1z"/>
<path d="M1033 1775 c0 -38 2 -53 4 -32 2 20 2 52 0 70 -2 17 -4 1 -4 -38z"/>
<path d="M1796 1821 c-3 -5 3 -11 14 -14 11 -3 20 -11 20 -19 0 -19 62 -58 92
-58 15 0 28 -6 31 -12 2 -7 8 -10 12 -6 12 11 -51 68 -74 68 -16 0 -21 6 -21
25 0 22 -4 25 -34 25 -19 0 -37 -4 -40 -9z"/>
<path d="M1244 1725 c3 -9 0 -15 -9 -15 -8 0 -15 -4 -15 -9 0 -5 9 -7 20 -4
11 3 27 0 35 -7 25 -21 19 10 -7 31 -26 23 -32 24 -24 4z"/>
<path d="M1012 1644 c-2 -57 1 -73 14 -78 10 -4 13 -2 7 7 -4 6 -11 41 -14 77
l-6 65 -1 -71z"/>
<path d="M1446 1674 c-4 -9 -5 -19 -3 -21 8 -8 37 10 37 23 0 19 -26 18 -34
-2z"/>
<path d="M1471 1263 c-12 -13 -11 -14 7 -9 18 6 23 2 31 -26 l9 -33 1 39 c1
22 -2 36 -6 33 -3 -4 -11 -3 -17 2 -7 6 -16 3 -25 -6z"/>
<path d="M1529 990 c-9 -21 6 -109 14 -90 4 8 3 35 -1 60 -4 25 -10 38 -13 30z"/>
<path d="M1830 625 c0 -8 -4 -15 -10 -15 -5 0 -10 -11 -10 -25 0 -18 5 -25 20
-25 11 0 20 -7 20 -16 0 -8 -4 -12 -10 -9 -5 3 -10 0 -10 -8 0 -10 7 -13 20
-10 13 4 20 0 20 -10 0 -8 7 -17 15 -21 10 -4 15 1 15 14 0 11 5 20 10 20 6 0
10 5 10 10 0 6 -9 10 -20 10 -12 0 -20 7 -20 18 0 14 2 15 10 2 8 -12 10 -10
10 8 0 13 -4 20 -10 17 -5 -3 -10 1 -10 9 0 9 -7 16 -15 16 -8 0 -15 7 -15 15
0 8 -4 15 -10 15 -5 0 -10 -7 -10 -15z"/>
<path d="M1807 514 c-10 -11 -9 -24 4 -24 11 0 39 -25 39 -35 0 -14 30 -35 49
-35 12 0 21 -4 21 -10 0 -5 7 -10 15 -10 8 0 14 -6 13 -12 -2 -7 7 -14 20 -16
18 -3 22 1 22 22 0 14 -4 26 -10 26 -5 0 -10 7 -10 15 0 8 -6 14 -12 13 -7 -2
-12 3 -10 10 1 7 -8 12 -22 12 -13 0 -27 -6 -30 -12 -5 -10 -7 -10 -12 0 -3 6
-10 12 -15 12 -6 0 -20 12 -32 26 -12 14 -26 22 -30 18z"/>
<path d="M1380 25 c0 -16 6 -25 15 -25 9 0 15 9 15 25 0 16 -6 25 -15 25 -9 0
-15 -9 -15 -25z"/>
</g>
</svg>
